<?xml version="1.0" encoding="utf-8"?>
<!-- Generator: Adobe Illustrator 18.1.0, SVG Export Plug-In . SVG Version: 6.00 Build 0)  -->
<svg version="1.1" id="レイヤー_1" xmlns="http://www.w3.org/2000/svg" xmlns:xlink="http://www.w3.org/1999/xlink" x="0px"
	 y="0px" viewBox="0 0 396.8 121" enable-background="new 0 0 396.8 121" xml:space="preserve">
<g>
	<g>
		<path fill="#FFFFFF" d="M51.6,63.3c-2.2-1.9-5.8-4.7-10.9-8.4c-5.1-3.7-7.9-5.7-8.3-6c-3-2.3-5.1-4.3-6.2-5.9
			c-1.1-1.6-1.7-3.2-1.7-4.9c0-2.1,0.6-3.7,1.7-5c1.1-1.2,2.8-1.8,5-1.8c2.6,0,4.5,0.8,5.6,2.3c1.2,1.5,1.8,3.8,1.8,6.8h20.1
			c0-6.9-2.3-12.3-7-16.2c-4.7-3.9-11-5.9-19.1-5.9c-8.1,0-14.6,2-19.7,6.1c-5.1,4-7.6,9.5-7.6,16.2c0,3.9,0.9,7.6,2.7,11
			c1.8,3.4,4.6,6.7,8.4,9.9c0.9,0.7,3.8,2.9,8.7,6.6c4.9,3.7,8,6.2,9.3,7.4c2.5,2.2,4.4,4.4,5.7,6.5c1.2,2.1,1.9,4.5,1.9,7.2
			c0,2.5-0.8,4.5-2.4,5.9c-1.6,1.4-3.8,2.1-6.7,2.1c-2.8,0-5-0.8-6.4-2.4c-1.4-1.6-2.1-3.8-2.1-6.8H4.5c0,7.2,2.5,12.7,7.4,16.5
			c4.9,3.8,11.7,5.7,20.5,5.7c9.7,0,17.1-2.1,22.1-6.3c5-4.3,7.6-10.6,7.6-19c0-4.3-0.8-8.1-2.4-11.5C58,70.1,55.3,66.7,51.6,63.3"
			/>
		<path fill="#FFFFFF" d="M132.6,42.8c0-8.5-2.4-14.7-7.1-18.6c-4.7-3.9-12.3-5.9-22.8-5.9c-9.7,0-17.1,2.1-22.2,6.3
			c-5.1,4.2-7.7,10.3-7.7,18.2v66.2h21.4V60.7h16.9v48.2h21.4V60.5h7V48.8h-7V42.8z M94.3,39c0-3.8,0.6-6.4,1.8-7.9
			c1.2-1.5,3.5-2.3,6.8-2.3c3,0,5.1,0.8,6.4,2.3c1.3,1.6,1.9,4.2,1.9,7.9v9.7H94.3V39z"/>
		<path fill="#FFFFFF" d="M183.2,19.1c-3.3,0-6.4,0.3-9.1,1c-2.8,0.6-5.1,1.7-7.1,3l-2.2-4h-17.1v89.8h21.4V29.8h3.8
			c3.6,0,6.2,0.7,7.9,2c1.7,1.4,2.5,3.4,2.5,6v71.1h21.4V37.1c0-5.6-1.9-10-5.7-13.2C195.1,20.7,189.9,19.1,183.2,19.1"/>
		<path fill="#FFFFFF" d="M317.1,42.8c0-8.5-2.4-14.7-7.1-18.6c-4.7-3.9-12.3-5.9-22.8-5.9c-9.7,0-17.1,2.1-22.2,6.3
			c-5.1,4.2-7.6,10.3-7.6,18.2v66.2h21.4V60.7h16.9v48.2h21.4V60.5h6.7V48.8h-6.7V42.8z M278.8,39c0-3.8,0.6-6.4,1.8-7.9
			c1.2-1.5,3.5-2.3,6.8-2.3c3,0,5.2,0.8,6.4,2.3c1.3,1.6,1.9,4.2,1.9,7.9v9.7h-16.9V39z"/>
		<path fill="#FFFFFF" d="M368.9,19.1v37l-7.4,6.5l-11.4-14.2V19.1h-21.4v32.1l20.1,22.7v35.1h21.4V69.8c6.8-4.7,11.9-9,15.1-13
			c3.3-4,4.9-7.7,4.9-11.2V19.1H368.9z"/>
		<path fill="#FFFFFF" d="M230.6,59.7c-4.1,0-7.4,3.3-7.4,7.4c0,4.1,3.3,7.4,7.4,7.4c4.1,0,7.4-3.3,7.4-7.4
			C238,63,234.7,59.7,230.6,59.7"/>
	</g>
</g>
</svg>
