<?xml version="1.0" encoding="utf-8"?>
<!-- Generator: Adobe Illustrator 18.1.0, SVG Export Plug-In . SVG Version: 6.00 Build 0)  -->
<svg version="1.1" id="レイヤー_1" xmlns="http://www.w3.org/2000/svg" xmlns:xlink="http://www.w3.org/1999/xlink" x="0px"
	 y="0px" viewBox="0 0 300 300" enable-background="new 0 0 300 300" xml:space="preserve">
<g>
	<g>
		<path fill="#100C09" d="M43.9,149.3c-1.6-1.4-4.2-3.4-7.9-6.1c-3.7-2.7-5.7-4.2-6-4.4c-2.2-1.7-3.7-3.1-4.5-4.3
			c-0.8-1.2-1.2-2.3-1.2-3.5c0-1.5,0.4-2.7,1.2-3.6c0.8-0.9,2-1.3,3.6-1.3c1.9,0,3.2,0.6,4.1,1.7c0.9,1.1,1.3,2.8,1.3,4.9h14.6
			c0-5-1.7-9-5.1-11.8c-3.4-2.9-8-4.3-13.9-4.3c-5.9,0-10.7,1.5-14.3,4.4c-3.7,2.9-5.6,6.9-5.6,11.8c0,2.9,0.7,5.5,2,8
			c1.3,2.5,3.4,4.9,6.1,7.2c0.6,0.5,2.7,2.1,6.3,4.8c3.6,2.7,5.8,4.5,6.8,5.4c1.8,1.6,3.2,3.2,4.1,4.7c0.9,1.6,1.4,3.3,1.4,5.2
			c0,1.8-0.6,3.3-1.8,4.3c-1.2,1-2.8,1.6-4.9,1.6c-2.1,0-3.6-0.6-4.6-1.7c-1-1.2-1.5-2.8-1.5-5H9.6c0,5.2,1.8,9.3,5.4,12
			c3.6,2.8,8.5,4.2,14.9,4.2c7.1,0,12.4-1.5,16.1-4.6c3.7-3.1,5.5-7.7,5.5-13.8c0-3.1-0.6-5.9-1.8-8.4
			C48.6,154.2,46.6,151.7,43.9,149.3"/>
		<path fill="#100C09" d="M102.9,134.3c0-6.2-1.7-10.7-5.2-13.6c-3.4-2.9-9-4.3-16.6-4.3c-7.1,0-12.5,1.5-16.2,4.6
			c-3.7,3.1-5.6,7.5-5.6,13.2v48.1H75v-35.1h12.3v35.1h15.6v-35.2h5.1v-8.5h-5.1V134.3z M75,131.6c0-2.8,0.4-4.7,1.3-5.8
			c0.9-1.1,2.5-1.7,4.9-1.7c2.2,0,3.7,0.6,4.7,1.7c0.9,1.1,1.4,3,1.4,5.7v7.1H75V131.6z"/>
		<path fill="#100C09" d="M139.7,117.1c-2.4,0-4.6,0.2-6.6,0.7c-2,0.5-3.7,1.2-5.1,2.2l-1.6-2.9h-12.5v65.4h15.6v-57.6h2.8
			c2.6,0,4.5,0.5,5.7,1.5c1.2,1,1.8,2.4,1.8,4.4v51.7h15.6v-52.2c0-4.1-1.4-7.3-4.1-9.6C148.4,118.3,144.6,117.1,139.7,117.1"/>
		<path fill="#100C09" d="M237.2,134.3c0-6.2-1.7-10.7-5.2-13.6c-3.4-2.9-9-4.3-16.6-4.3c-7.1,0-12.5,1.5-16.2,4.6
			c-3.7,3.1-5.6,7.5-5.6,13.2v48.1h15.6v-35.1h12.3v35.1h15.6v-35.2h4.9v-8.5h-4.9V134.3z M209.3,131.6c0-2.8,0.4-4.7,1.3-5.8
			c0.9-1.1,2.5-1.7,4.9-1.7c2.2,0,3.8,0.6,4.7,1.7c0.9,1.1,1.4,3,1.4,5.7v7.1h-12.3V131.6z"/>
		<path fill="#100C09" d="M274.8,117.1V144l-5.4,4.7l-8.3-10.4v-21.3h-15.6v23.3l14.6,16.5v25.5h15.6V154c5-3.4,8.6-6.6,11-9.5
			c2.4-2.9,3.6-5.6,3.6-8.1v-19.3H274.8z"/>
		<path fill="#100C09" d="M174.2,146.7c-3,0-5.4,2.4-5.4,5.4c0,3,2.4,5.4,5.4,5.4c3,0,5.4-2.4,5.4-5.4
			C179.6,149.1,177.2,146.7,174.2,146.7"/>
	</g>
</g>
<circle fill="none" stroke="#100C09" stroke-width="0.8575" stroke-miterlimit="10" cx="150" cy="150" r="150"/>
</svg>
